<svg xmlns="http://www.w3.org/2000/svg" width="800" height="600" viewBox="0 0 800 600">
  <rect width="800" height="600" fill="#1a1a2e"/>
  <polyline points="650.0,300.0 650.0,306.3 649.8,312.6 649.6,318.8 649.3,325.1 648.9,331.3 648.4,337.5 647.8,343.6 647.2,349.7 646.4,355.8 645.6,361.8 644.6,367.7 643.6,373.6 642.5,379.4 641.3,385.2 640.1,390.8 638.7,396.4 637.3,401.8 635.7,407.2 634.1,412.4 632.4,417.6 630.7,422.6 628.8,427.5 626.9,432.3 624.9,436.9 622.8,441.4 620.6,445.8 618.3,450.0 616.0,454.1 613.6,458.0 611.1,461.8 608.5,465.4 605.9,468.9 603.2,472.1 600.4,475.3 597.5,478.2 594.6,481.0 591.6,483.6 588.6,486.0 585.4,488.2 582.2,490.2 579.0,492.1 575.7,493.7 572.3,495.2 568.8,496.5 565.3,497.5 561.8,498.4 558.1,499.1 554.5,499.6 550.7,499.9 546.9,500.0 543.1,499.9 539.2,499.6 535.3,499.1 531.3,498.4 527.3,497.5 523.2,496.5 519.1,495.2 514.9,493.7 510.7,492.1 506.4,490.2 502.2,488.2 497.8,486.0 493.5,483.6 489.1,481.0 484.7,478.2 480.2,475.3 475.8,472.1 471.3,468.9 466.7,465.4 462.2,461.8 457.6,458.0 453.0,454.1 448.4,450.0 443.8,445.8 439.1,441.4 434.4,436.9 429.8,432.3 425.1,427.5 420.4,422.6 415.7,417.6 411.0,412.4 406.3,407.2 401.6,401.8 396.9,396.4 392.1,390.8 387.4,385.2 382.7,379.4 378.0,373.6 373.3,367.7 368.7,361.8 364.0,355.8 359.3,349.7 354.7,343.6 350.1,337.5 345.5,331.3 340.9,325.1 336.3,318.8 331.8,312.6 327.2,306.3 322.7,300.0 318.3,293.7 313.8,287.4 309.4,281.2 305.1,274.9 300.7,268.7 296.4,262.5 292.1,256.4 287.9,250.3 283.7,244.2 279.6,238.2 275.5,232.3 271.4,226.4 267.4,220.6 263.4,214.8 259.5,209.2 255.6,203.6 251.8,198.2 248.0,192.8 244.3,187.6 240.6,182.4 237.0,177.4 233.5,172.5 230.0,167.7 226.6,163.1 223.2,158.6 219.9,154.2 216.7,150.0 213.5,145.9 210.4,142.0 207.4,138.2 204.4,134.6 201.5,131.1 198.7,127.9 195.9,124.7 193.2,121.8 190.6,119.0 188.1,116.4 185.6,114.0 183.2,111.8 180.9,109.8 178.7,107.9 176.5,106.3 174.5,104.8 172.5,103.5 170.6,102.5 168.7,101.6 167.0,100.9 165.3,100.4 163.7,100.1 162.2,100.0 160.8,100.1 159.5,100.4 158.2,100.9 157.1,101.6 156.0,102.5 155.0,103.5 154.1,104.8 153.3,106.3 152.6,107.9 152.0,109.8 151.4,111.8 151.0,114.0 150.6,116.4 150.3,119.0 150.1,121.8 150.0,124.7 150.0,127.9 150.1,131.1 150.2,134.6 150.5,138.2 150.8,142.0 151.3,145.9 151.8,150.0 152.4,154.2 153.1,158.6 153.9,163.1 154.7,167.7 155.7,172.5 156.7,177.4 157.9,182.4 159.1,187.6 160.4,192.8 161.8,198.2 163.2,203.6 164.8,209.2 166.4,214.8 168.1,220.6 169.9,226.4 171.8,232.3 173.8,238.2 175.8,244.2 178.0,250.3 180.2,256.4 182.5,262.5 184.8,268.7 187.3,274.9 189.8,281.2 192.4,287.4 195.0,293.7 197.7,300.0 200.6,306.3 203.4,312.6 206.4,318.8 209.4,325.1 212.5,331.3 215.6,337.5 218.8,343.6 222.1,349.7 225.5,355.8 228.9,361.8 232.3,367.7 235.9,373.6 239.4,379.4 243.1,385.2 246.8,390.8 250.5,396.4 254.3,401.8 258.2,407.2 262.1,412.4 266.0,417.6 270.0,422.6 274.1,427.5 278.2,432.3 282.3,436.9 286.5,441.4 290.7,445.8 295.0,450.0 299.3,454.1 303.6,458.0 308.0,461.8 312.4,465.4 316.8,468.9 321.3,472.1 325.7,475.3 330.3,478.2 334.8,481.0 339.4,483.6 343.9,486.0 348.5,488.2 353.2,490.2 357.8,492.1 362.4,493.7 367.1,495.2 371.8,496.5 376.5,497.5 381.2,498.4 385.9,499.1 390.6,499.6 395.3,499.9 400.0,500.0 404.7,499.9 409.4,499.6 414.1,499.1 418.8,498.4 423.5,497.5 428.2,496.5 432.9,495.2 437.6,493.7 442.2,492.1 446.8,490.2 451.5,488.2 456.1,486.0 460.6,483.6 465.2,481.0 469.7,478.2 474.3,475.3 478.7,472.1 483.2,468.9 487.6,465.4 492.0,461.8 496.4,458.0 500.7,454.1 505.0,450.0 509.3,445.8 513.5,441.4 517.7,436.9 521.8,432.3 525.9,427.5 530.0,422.6 534.0,417.6 537.9,412.4 541.8,407.2 545.7,401.8 549.5,396.4 553.2,390.8 556.9,385.2 560.6,379.4 564.1,373.6 567.7,367.7 571.1,361.8 574.5,355.8 577.9,349.7 581.2,343.6 584.4,337.5 587.5,331.3 590.6,325.1 593.6,318.8 596.6,312.6 599.4,306.3 602.3,300.0 605.0,293.7 607.6,287.4 610.2,281.2 612.7,274.9 615.2,268.7 617.5,262.5 619.8,256.4 622.0,250.3 624.2,244.2 626.2,238.2 628.2,232.3 630.1,226.4 631.9,220.6 633.6,214.8 635.2,209.2 636.8,203.6 638.2,198.2 639.6,192.8 640.9,187.6 642.1,182.4 643.3,177.4 644.3,172.5 645.3,167.7 646.1,163.1 646.9,158.6 647.6,154.2 648.2,150.0 648.7,145.9 649.2,142.0 649.5,138.2 649.8,134.6 649.9,131.1 650.0,127.9 650.0,124.7 649.9,121.8 649.7,119.0 649.4,116.4 649.0,114.0 648.6,111.8 648.0,109.8 647.4,107.9 646.7,106.3 645.9,104.8 645.0,103.5 644.0,102.5 642.9,101.6 641.8,100.9 640.5,100.4 639.2,100.1 637.8,100.0 636.3,100.1 634.7,100.4 633.0,100.9 631.3,101.6 629.4,102.5 627.5,103.5 625.5,104.8 623.5,106.3 621.3,107.9 619.1,109.8 616.8,111.8 614.4,114.0 611.9,116.4 609.4,119.0 606.8,121.8 604.1,124.7 601.3,127.9 598.5,131.1 595.6,134.6 592.6,138.2 589.6,142.0 586.5,145.9 583.3,150.0 580.1,154.2 576.8,158.6 573.4,163.1 570.0,167.7 566.5,172.5 563.0,177.4 559.4,182.4 555.7,187.6 552.0,192.8 548.2,198.2 544.4,203.6 540.5,209.2 536.6,214.8 532.6,220.6 528.6,226.4 524.5,232.3 520.4,238.2 516.3,244.2 512.1,250.3 507.9,256.4 503.6,262.5 499.3,268.7 494.9,274.9 490.6,281.2 486.2,287.4 481.7,293.7 477.3,300.0 472.8,306.3 468.2,312.6 463.7,318.8 459.1,325.1 454.5,331.3 449.9,337.5 445.3,343.6 440.7,349.7 436.0,355.8 431.3,361.8 426.7,367.7 422.0,373.6 417.3,379.4 412.6,385.2 407.9,390.8 403.1,396.4 398.4,401.8 393.7,407.2 389.0,412.4 384.3,417.6 379.6,422.6 374.9,427.5 370.2,432.3 365.6,436.9 360.9,441.4 356.2,445.8 351.6,450.0 347.0,454.1 342.4,458.0 337.8,461.8 333.3,465.4 328.7,468.9 324.2,472.1 319.8,475.3 315.3,478.2 310.9,481.0 306.5,483.6 302.2,486.0 297.8,488.2 293.6,490.2 289.3,492.1 285.1,493.7 280.9,495.2 276.8,496.5 272.7,497.5 268.7,498.4 264.7,499.1 260.8,499.6 256.9,499.9 253.1,500.0 249.3,499.9 245.5,499.6 241.9,499.1 238.2,498.4 234.7,497.5 231.2,496.5 227.7,495.2 224.3,493.7 221.0,492.1 217.8,490.2 214.6,488.2 211.4,486.0 208.4,483.6 205.4,481.0 202.5,478.2 199.6,475.3 196.8,472.1 194.1,468.9 191.5,465.4 188.9,461.8 186.4,458.0 184.0,454.1 181.7,450.0 179.4,445.8 177.2,441.4 175.1,436.9 173.1,432.3 171.2,427.5 169.3,422.6 167.6,417.6 165.9,412.4 164.3,407.2 162.7,401.8 161.3,396.4 159.9,390.8 158.7,385.2 157.5,379.4 156.4,373.6 155.4,367.7 154.4,361.8 153.6,355.8 152.8,349.7 152.2,343.6 151.6,337.5 151.1,331.3 150.7,325.1 150.4,318.8 150.2,312.6 150.0,306.3 150.0,300.0 150.0,293.7 150.2,287.4 150.4,281.2 150.7,274.9 151.1,268.7 151.6,262.5 152.2,256.4 152.8,250.3 153.6,244.2 154.4,238.2 155.4,232.3 156.4,226.4 157.5,220.6 158.7,214.8 159.9,209.2 161.3,203.6 162.7,198.2 164.3,192.8 165.9,187.6 167.6,182.4 169.3,177.4 171.2,172.5 173.1,167.7 175.1,163.1 177.2,158.6 179.4,154.2 181.7,150.0 184.0,145.9 186.4,142.0 188.9,138.2 191.5,134.6 194.1,131.1 196.8,127.9 199.6,124.7 202.5,121.8 205.4,119.0 208.4,116.4 211.4,114.0 214.6,111.8 217.8,109.8 221.0,107.9 224.3,106.3 227.7,104.8 231.2,103.5 234.7,102.5 238.2,101.6 241.9,100.9 245.5,100.4 249.3,100.1 253.1,100.0 256.9,100.1 260.8,100.4 264.7,100.9 268.7,101.6 272.7,102.5 276.8,103.5 280.9,104.8 285.1,106.3 289.3,107.9 293.6,109.8 297.8,111.8 302.2,114.0 306.5,116.4 310.9,119.0 315.3,121.8 319.8,124.7 324.2,127.9 328.7,131.1 333.3,134.6 337.8,138.2 342.4,142.0 347.0,145.9 351.6,150.0 356.2,154.2 360.9,158.6 365.6,163.1 370.2,167.7 374.9,172.5 379.6,177.4 384.3,182.4 389.0,187.6 393.7,192.8 398.4,198.2 403.1,203.6 407.9,209.2 412.6,214.8 417.3,220.6 422.0,226.4 426.7,232.3 431.3,238.2 436.0,244.2 440.7,250.3 445.3,256.4 449.9,262.5 454.5,268.7 459.1,274.9 463.7,281.2 468.2,287.4 472.8,293.7 477.3,300.0 481.7,306.3 486.2,312.6 490.6,318.8 494.9,325.1 499.3,331.3 503.6,337.5 507.9,343.6 512.1,349.7 516.3,355.8 520.4,361.8 524.5,367.7 528.6,373.6 532.6,379.4 536.6,385.2 540.5,390.8 544.4,396.4 548.2,401.8 552.0,407.2 555.7,412.4 559.4,417.6 563.0,422.6 566.5,427.5 570.0,432.3 573.4,436.9 576.8,441.4 580.1,445.8 583.3,450.0 586.5,454.1 589.6,458.0 592.6,461.8 595.6,465.4 598.5,468.9 601.3,472.1 604.1,475.3 606.8,478.2 609.4,481.0 611.9,483.6 614.4,486.0 616.8,488.2 619.1,490.2 621.3,492.1 623.5,493.7 625.5,495.2 627.5,496.5 629.4,497.5 631.3,498.4 633.0,499.1 634.7,499.6 636.3,499.9 637.8,500.0 639.2,499.9 640.5,499.6 641.8,499.1 642.9,498.4 644.0,497.5 645.0,496.5 645.9,495.2 646.7,493.7 647.4,492.1 648.0,490.2 648.6,488.2 649.0,486.0 649.4,483.6 649.7,481.0 649.9,478.2 650.0,475.3 650.0,472.1 649.9,468.9 649.8,465.4 649.5,461.8 649.2,458.0 648.7,454.1 648.2,450.0 647.6,445.8 646.9,441.4 646.1,436.9 645.3,432.3 644.3,427.5 643.3,422.6 642.1,417.6 640.9,412.4 639.6,407.2 638.2,401.8 636.8,396.4 635.2,390.8 633.6,385.2 631.9,379.4 630.1,373.6 628.2,367.7 626.2,361.8 624.2,355.8 622.0,349.7 619.8,343.6 617.5,337.5 615.2,331.3 612.7,325.1 610.2,318.8 607.6,312.6 605.0,306.3 602.3,300.0 599.4,293.7 596.6,287.4 593.6,281.2 590.6,274.9 587.5,268.7 584.4,262.5 581.2,256.4 577.9,250.3 574.5,244.2 571.1,238.2 567.7,232.3 564.1,226.4 560.6,220.6 556.9,214.8 553.2,209.2 549.5,203.6 545.7,198.2 541.8,192.8 537.9,187.6 534.0,182.4 530.0,177.4 525.9,172.5 521.8,167.7 517.7,163.1 513.5,158.6 509.3,154.2 505.0,150.0 500.7,145.9 496.4,142.0 492.0,138.2 487.6,134.6 483.2,131.1 478.7,127.9 474.3,124.7 469.7,121.8 465.2,119.0 460.6,116.4 456.1,114.0 451.5,111.8 446.8,109.8 442.2,107.9 437.6,106.3 432.9,104.8 428.2,103.5 423.5,102.5 418.8,101.6 414.1,100.9 409.4,100.4 404.7,100.1 400.0,100.0 395.3,100.1 390.6,100.4 385.9,100.9 381.2,101.6 376.5,102.5 371.8,103.5 367.1,104.8 362.4,106.3 357.8,107.9 353.2,109.8 348.5,111.8 343.9,114.0 339.4,116.4 334.8,119.0 330.3,121.8 325.7,124.7 321.3,127.9 316.8,131.1 312.4,134.6 308.0,138.2 303.6,142.0 299.3,145.9 295.0,150.0 290.7,154.2 286.5,158.6 282.3,163.1 278.2,167.7 274.1,172.5 270.0,177.4 266.0,182.4 262.1,187.6 258.2,192.8 254.3,198.2 250.5,203.6 246.8,209.2 243.1,214.8 239.4,220.6 235.9,226.4 232.3,232.3 228.9,238.2 225.5,244.2 222.1,250.3 218.8,256.4 215.6,262.5 212.5,268.7 209.4,274.9 206.4,281.2 203.4,287.4 200.6,293.7 197.7,300.0 195.0,306.3 192.4,312.6 189.8,318.8 187.3,325.1 184.8,331.3 182.5,337.5 180.2,343.6 178.0,349.7 175.8,355.8 173.8,361.8 171.8,367.7 169.9,373.6 168.1,379.4 166.4,385.2 164.8,390.8 163.2,396.4 161.8,401.8 160.4,407.2 159.1,412.4 157.9,417.6 156.7,422.6 155.7,427.5 154.7,432.3 153.9,436.9 153.1,441.4 152.4,445.8 151.8,450.0 151.3,454.1 150.8,458.0 150.5,461.8 150.2,465.4 150.1,468.9 150.0,472.1 150.0,475.3 150.1,478.2 150.3,481.0 150.6,483.6 151.0,486.0 151.4,488.2 152.0,490.2 152.6,492.1 153.3,493.7 154.1,495.2 155.0,496.5 156.0,497.5 157.1,498.4 158.2,499.1 159.5,499.6 160.8,499.9 162.2,500.0 163.7,499.9 165.3,499.6 167.0,499.1 168.7,498.4 170.6,497.5 172.5,496.5 174.5,495.2 176.5,493.7 178.7,492.1 180.9,490.2 183.2,488.2 185.6,486.0 188.1,483.6 190.6,481.0 193.2,478.2 195.9,475.3 198.7,472.1 201.5,468.9 204.4,465.4 207.4,461.8 210.4,458.0 213.5,454.1 216.7,450.0 219.9,445.8 223.2,441.4 226.6,436.9 230.0,432.3 233.5,427.5 237.0,422.6 240.6,417.6 244.3,412.4 248.0,407.2 251.8,401.8 255.6,396.4 259.5,390.8 263.4,385.2 267.4,379.4 271.4,373.6 275.5,367.7 279.6,361.8 283.7,355.8 287.9,349.7 292.1,343.6 296.4,337.5 300.7,331.3 305.1,325.1 309.4,318.8 313.8,312.6 318.3,306.3 322.7,300.0 327.2,293.7 331.8,287.4 336.3,281.2 340.9,274.9 345.5,268.7 350.1,262.5 354.7,256.4 359.3,250.3 364.0,244.2 368.7,238.2 373.3,232.3 378.0,226.4 382.7,220.6 387.4,214.8 392.1,209.2 396.9,203.6 401.6,198.2 406.3,192.8 411.0,187.6 415.7,182.4 420.4,177.4 425.1,172.5 429.8,167.7 434.4,163.1 439.1,158.6 443.8,154.2 448.4,150.0 453.0,145.9 457.6,142.0 462.2,138.2 466.7,134.6 471.3,131.1 475.8,127.9 480.2,124.7 484.7,121.8 489.1,119.0 493.5,116.4 497.8,114.0 502.2,111.8 506.4,109.8 510.7,107.9 514.9,106.3 519.1,104.8 523.2,103.5 527.3,102.5 531.3,101.6 535.3,100.9 539.2,100.4 543.1,100.1 546.9,100.0 550.7,100.1 554.5,100.4 558.1,100.9 561.8,101.6 565.3,102.5 568.8,103.5 572.3,104.8 575.7,106.3 579.0,107.9 582.2,109.8 585.4,111.8 588.6,114.0 591.6,116.4 594.6,119.0 597.5,121.8 600.4,124.7 603.2,127.9 605.9,131.1 608.5,134.6 611.1,138.2 613.6,142.0 616.0,145.9 618.3,150.0 620.6,154.2 622.8,158.6 624.9,163.1 626.9,167.7 628.8,172.5 630.7,177.4 632.4,182.4 634.1,187.6 635.7,192.8 637.3,198.2 638.7,203.6 640.1,209.2 641.3,214.8 642.5,220.6 643.6,226.4 644.6,232.3 645.6,238.2 646.4,244.2 647.2,250.3 647.8,256.4 648.4,262.5 648.9,268.7 649.3,274.9 649.6,281.2 649.8,287.4 650.0,293.7" fill="none" stroke="#A2DED0" stroke-width="1.5" opacity="0.9"/>
  <text x="400.0" y="570" text-anchor="middle" fill="#6C7A89" font-family="Muli, sans-serif" font-size="16">Algorithmic Mathematical Art</text>
</svg>